<svg width="90" height="10" viewBox="0 0 90 10" fill="none" xmlns="http://www.w3.org/2000/svg">
<path d="M0.5625 9V0.272727H4.34659C5.01136 0.272727 5.5696 0.362216 6.02131 0.541193C6.47585 0.72017 6.81818 0.973011 7.0483 1.29972C7.28125 1.62642 7.39773 2.01136 7.39773 2.45455C7.39773 2.77557 7.3267 3.06818 7.18466 3.33239C7.04545 3.59659 6.84943 3.81818 6.59659 3.99716C6.34375 4.1733 6.0483 4.29545 5.71023 4.36364V4.44886C6.08523 4.46307 6.42614 4.55824 6.73295 4.73438C7.03977 4.90767 7.28409 5.14773 7.46591 5.45455C7.64773 5.75852 7.73864 6.11648 7.73864 6.52841C7.73864 7.00568 7.61364 7.4304 7.36364 7.80256C7.11648 8.17472 6.7642 8.46733 6.30682 8.6804C5.84943 8.89347 5.30398 9 4.67045 9H0.5625ZM2.93182 7.10795H4.03977C4.4375 7.10795 4.7358 7.03409 4.93466 6.88636C5.13352 6.7358 5.23295 6.5142 5.23295 6.22159C5.23295 6.01705 5.18608 5.84375 5.09233 5.7017C4.99858 5.55966 4.86506 5.4517 4.69176 5.37784C4.52131 5.30398 4.31534 5.26705 4.07386 5.26705H2.93182V7.10795ZM2.93182 3.80114H3.90341C4.1108 3.80114 4.29403 3.76847 4.45312 3.70312C4.61222 3.63778 4.7358 3.54403 4.82386 3.42188C4.91477 3.29688 4.96023 3.14489 4.96023 2.96591C4.96023 2.69602 4.86364 2.49006 4.67045 2.34801C4.47727 2.20312 4.23295 2.13068 3.9375 2.13068H2.93182V3.80114ZM8.57812 9V0.272727H14.8679V2.18182H10.9474V3.68182H14.544V5.59091H10.9474V7.09091H14.8509V9H8.57812ZM20.7475 3C20.7248 2.71591 20.6183 2.49432 20.4279 2.33523C20.2404 2.17614 19.9549 2.09659 19.5714 2.09659C19.3271 2.09659 19.1268 2.12642 18.9705 2.18608C18.8171 2.2429 18.7035 2.32102 18.6296 2.42045C18.5558 2.51989 18.5174 2.63352 18.5146 2.76136C18.5089 2.86648 18.5273 2.96165 18.57 3.04688C18.6154 3.12926 18.6864 3.20455 18.783 3.27273C18.8796 3.33807 19.0032 3.39773 19.1538 3.4517C19.3043 3.50568 19.4833 3.55398 19.6907 3.59659L20.4066 3.75C20.8896 3.85227 21.3029 3.98722 21.6467 4.15483C21.9904 4.32244 22.2717 4.51989 22.4904 4.74716C22.7092 4.97159 22.8697 5.22443 22.9719 5.50568C23.0771 5.78693 23.131 6.09375 23.1339 6.42614C23.131 7 22.9876 7.4858 22.7035 7.88352C22.4194 8.28125 22.0131 8.58381 21.4847 8.79119C20.9592 8.99858 20.3271 9.10227 19.5884 9.10227C18.8299 9.10227 18.168 8.99006 17.6026 8.76562C17.0401 8.54119 16.6026 8.19602 16.2901 7.73011C15.9805 7.26136 15.8242 6.66193 15.8214 5.93182H18.0714C18.0856 6.19886 18.1523 6.4233 18.2717 6.60511C18.391 6.78693 18.5586 6.92472 18.7745 7.01847C18.9933 7.11222 19.2532 7.15909 19.5543 7.15909C19.8072 7.15909 20.0188 7.12784 20.1893 7.06534C20.3597 7.00284 20.489 6.91619 20.5771 6.8054C20.6651 6.6946 20.7106 6.56818 20.7134 6.42614C20.7106 6.29261 20.6665 6.17614 20.5813 6.0767C20.4989 5.97443 20.3626 5.88352 20.1722 5.80398C19.9819 5.72159 19.7248 5.64489 19.4009 5.57386L18.5316 5.38636C17.7589 5.21875 17.1495 4.93892 16.7035 4.54688C16.2603 4.15199 16.0401 3.61364 16.043 2.93182C16.0401 2.37784 16.1879 1.89347 16.4862 1.47869C16.7873 1.06108 17.2035 0.735795 17.7347 0.502841C18.2688 0.269886 18.881 0.153409 19.5714 0.153409C20.2759 0.153409 20.8853 0.271307 21.3995 0.507102C21.9137 0.742898 22.31 1.07528 22.5884 1.50426C22.8697 1.9304 23.0117 2.42898 23.0146 3H20.7475ZM23.7965 2.18182V0.272727H31.3817V2.18182H28.7567V9H26.4215V2.18182H23.7965Z" fill="#ED3F40"/>
<path d="M32.2734 9V0.272727H36.0575C36.7223 0.272727 37.2805 0.362216 37.7322 0.541193C38.1868 0.72017 38.5291 0.973011 38.7592 1.29972C38.9922 1.62642 39.1087 2.01136 39.1087 2.45455C39.1087 2.77557 39.0376 3.06818 38.8956 3.33239C38.7564 3.59659 38.5604 3.81818 38.3075 3.99716C38.0547 4.1733 37.7592 4.29545 37.4212 4.36364V4.44886C37.7962 4.46307 38.1371 4.55824 38.4439 4.73438C38.7507 4.90767 38.995 5.14773 39.1768 5.45455C39.3587 5.75852 39.4496 6.11648 39.4496 6.52841C39.4496 7.00568 39.3246 7.4304 39.0746 7.80256C38.8274 8.17472 38.4751 8.46733 38.0178 8.6804C37.5604 8.89347 37.0149 9 36.3814 9H32.2734ZM34.6428 7.10795H35.7507C36.1484 7.10795 36.4467 7.03409 36.6456 6.88636C36.8445 6.7358 36.9439 6.5142 36.9439 6.22159C36.9439 6.01705 36.897 5.84375 36.8033 5.7017C36.7095 5.55966 36.576 5.4517 36.4027 5.37784C36.2322 5.30398 36.0263 5.26705 35.7848 5.26705H34.6428V7.10795ZM34.6428 3.80114H35.6143C35.8217 3.80114 36.005 3.76847 36.1641 3.70312C36.3232 3.63778 36.4467 3.54403 36.5348 3.42188C36.6257 3.29688 36.6712 3.14489 36.6712 2.96591C36.6712 2.69602 36.5746 2.49006 36.3814 2.34801C36.1882 2.20312 35.9439 2.13068 35.6484 2.13068H34.6428V3.80114ZM48.7436 4.63636C48.7436 5.60795 48.5547 6.42756 48.1768 7.09517C47.799 7.75994 47.2891 8.2642 46.647 8.60795C46.005 8.94886 45.2891 9.11932 44.4993 9.11932C43.7038 9.11932 42.9851 8.94744 42.343 8.60369C41.7038 8.2571 41.1953 7.75142 40.8175 7.08665C40.4425 6.41903 40.255 5.60227 40.255 4.63636C40.255 3.66477 40.4425 2.84659 40.8175 2.18182C41.1953 1.5142 41.7038 1.00994 42.343 0.669034C42.9851 0.325284 43.7038 0.153409 44.4993 0.153409C45.2891 0.153409 46.005 0.325284 46.647 0.669034C47.2891 1.00994 47.799 1.5142 48.1768 2.18182C48.5547 2.84659 48.7436 3.66477 48.7436 4.63636ZM46.3061 4.63636C46.3061 4.11364 46.2365 3.6733 46.0973 3.31534C45.9609 2.95455 45.7578 2.68182 45.4879 2.49716C45.2209 2.30966 44.8913 2.21591 44.4993 2.21591C44.1072 2.21591 43.7763 2.30966 43.5064 2.49716C43.2393 2.68182 43.0362 2.95455 42.897 3.31534C42.7607 3.6733 42.6925 4.11364 42.6925 4.63636C42.6925 5.15909 42.7607 5.60085 42.897 5.96165C43.0362 6.3196 43.2393 6.59233 43.5064 6.77983C43.7763 6.96449 44.1072 7.05682 44.4993 7.05682C44.8913 7.05682 45.2209 6.96449 45.4879 6.77983C45.7578 6.59233 45.9609 6.3196 46.0973 5.96165C46.2365 5.60085 46.3061 5.15909 46.3061 4.63636ZM57.391 0.272727V9H55.4137L52.2603 4.41477H52.2092V9H49.8398V0.272727H51.8512L54.9535 4.84091H55.0217V0.272727H57.391ZM63.6765 0.272727H66.0458V5.86364C66.0458 6.52841 65.8867 7.10369 65.5685 7.58949C65.2532 8.07244 64.8129 8.44602 64.2475 8.71023C63.6822 8.97159 63.0259 9.10227 62.2788 9.10227C61.5259 9.10227 60.8668 8.97159 60.3015 8.71023C59.7362 8.44602 59.2958 8.07244 58.9805 7.58949C58.668 7.10369 58.5117 6.52841 58.5117 5.86364V0.272727H60.881V5.65909C60.881 5.92898 60.9407 6.17045 61.06 6.38352C61.1793 6.59375 61.3441 6.75852 61.5543 6.87784C61.7674 6.99716 62.0089 7.05682 62.2788 7.05682C62.5515 7.05682 62.793 6.99716 63.0032 6.87784C63.2134 6.75852 63.3782 6.59375 63.4975 6.38352C63.6168 6.17045 63.6765 5.92898 63.6765 5.65909V0.272727ZM71.8764 3C71.8537 2.71591 71.7472 2.49432 71.5568 2.33523C71.3693 2.17614 71.0838 2.09659 70.7003 2.09659C70.456 2.09659 70.2557 2.12642 70.0994 2.18608C69.946 2.2429 69.8324 2.32102 69.7585 2.42045C69.6847 2.51989 69.6463 2.63352 69.6435 2.76136C69.6378 2.86648 69.6563 2.96165 69.6989 3.04688C69.7443 3.12926 69.8153 3.20455 69.9119 3.27273C70.0085 3.33807 70.1321 3.39773 70.2827 3.4517C70.4332 3.50568 70.6122 3.55398 70.8196 3.59659L71.5355 3.75C72.0185 3.85227 72.4318 3.98722 72.7756 4.15483C73.1193 4.32244 73.4006 4.51989 73.6193 4.74716C73.8381 4.97159 73.9986 5.22443 74.1009 5.50568C74.206 5.78693 74.2599 6.09375 74.2628 6.42614C74.2599 7 74.1165 7.4858 73.8324 7.88352C73.5483 8.28125 73.142 8.58381 72.6136 8.79119C72.0881 8.99858 71.456 9.10227 70.7173 9.10227C69.9588 9.10227 69.2969 8.99006 68.7315 8.76562C68.169 8.54119 67.7315 8.19602 67.419 7.73011C67.1094 7.26136 66.9531 6.66193 66.9503 5.93182H69.2003C69.2145 6.19886 69.2813 6.4233 69.4006 6.60511C69.5199 6.78693 69.6875 6.92472 69.9034 7.01847C70.1222 7.11222 70.3821 7.15909 70.6832 7.15909C70.9361 7.15909 71.1477 7.12784 71.3182 7.06534C71.4886 7.00284 71.6179 6.91619 71.706 6.8054C71.794 6.6946 71.8395 6.56818 71.8423 6.42614C71.8395 6.29261 71.7955 6.17614 71.7102 6.0767C71.6278 5.97443 71.4915 5.88352 71.3011 5.80398C71.1108 5.72159 70.8537 5.64489 70.5298 5.57386L69.6605 5.38636C68.8878 5.21875 68.2784 4.93892 67.8324 4.54688C67.3892 4.15199 67.169 3.61364 67.1719 2.93182C67.169 2.37784 67.3168 1.89347 67.6151 1.47869C67.9162 1.06108 68.3324 0.735795 68.8636 0.502841C69.3977 0.269886 70.0099 0.153409 70.7003 0.153409C71.4048 0.153409 72.0142 0.271307 72.5284 0.507102C73.0426 0.742898 73.4389 1.07528 73.7173 1.50426C73.9986 1.9304 74.1406 2.42898 74.1435 3H71.8764ZM75.1641 9V0.272727H81.4538V2.18182H77.5334V3.68182H81.13V5.59091H77.5334V7.09091H81.4368V9H75.1641ZM87.3335 3C87.3107 2.71591 87.2042 2.49432 87.0138 2.33523C86.8263 2.17614 86.5408 2.09659 86.1573 2.09659C85.913 2.09659 85.7127 2.12642 85.5565 2.18608C85.4031 2.2429 85.2894 2.32102 85.2156 2.42045C85.1417 2.51989 85.1033 2.63352 85.1005 2.76136C85.0948 2.86648 85.1133 2.96165 85.1559 3.04688C85.2013 3.12926 85.2724 3.20455 85.369 3.27273C85.4656 3.33807 85.5891 3.39773 85.7397 3.4517C85.8903 3.50568 86.0692 3.55398 86.2766 3.59659L86.9925 3.75C87.4755 3.85227 87.8888 3.98722 88.2326 4.15483C88.5763 4.32244 88.8576 4.51989 89.0763 4.74716C89.2951 4.97159 89.4556 5.22443 89.5579 5.50568C89.663 5.78693 89.717 6.09375 89.7198 6.42614C89.717 7 89.5735 7.4858 89.2894 7.88352C89.0053 8.28125 88.5991 8.58381 88.0707 8.79119C87.5451 8.99858 86.913 9.10227 86.1744 9.10227C85.4158 9.10227 84.7539 8.99006 84.1886 8.76562C83.6261 8.54119 83.1886 8.19602 82.8761 7.73011C82.5664 7.26136 82.4102 6.66193 82.4073 5.93182H84.6573C84.6715 6.19886 84.7383 6.4233 84.8576 6.60511C84.9769 6.78693 85.1445 6.92472 85.3604 7.01847C85.5792 7.11222 85.8391 7.15909 86.1403 7.15909C86.3931 7.15909 86.6048 7.12784 86.7752 7.06534C86.9457 7.00284 87.0749 6.91619 87.163 6.8054C87.2511 6.6946 87.2965 6.56818 87.2994 6.42614C87.2965 6.29261 87.2525 6.17614 87.1673 6.0767C87.0849 5.97443 86.9485 5.88352 86.7582 5.80398C86.5678 5.72159 86.3107 5.64489 85.9869 5.57386L85.1175 5.38636C84.3448 5.21875 83.7354 4.93892 83.2894 4.54688C82.8462 4.15199 82.6261 3.61364 82.6289 2.93182C82.6261 2.37784 82.7738 1.89347 83.0721 1.47869C83.3732 1.06108 83.7894 0.735795 84.3207 0.502841C84.8548 0.269886 85.467 0.153409 86.1573 0.153409C86.8619 0.153409 87.4712 0.271307 87.9854 0.507102C88.4996 0.742898 88.896 1.07528 89.1744 1.50426C89.4556 1.9304 89.5977 2.42898 89.6005 3H87.3335Z" fill="white"/>
</svg>
