<svg width="16" height="9" viewBox="0 0 16 9" fill="none" xmlns="http://www.w3.org/2000/svg">
<path d="M0.5625 9V0.272727H4.34659C5.01136 0.272727 5.5696 0.362216 6.02131 0.541193C6.47585 0.72017 6.81818 0.973011 7.0483 1.29972C7.28125 1.62642 7.39773 2.01136 7.39773 2.45455C7.39773 2.77557 7.3267 3.06818 7.18466 3.33239C7.04545 3.59659 6.84943 3.81818 6.59659 3.99716C6.34375 4.1733 6.0483 4.29545 5.71023 4.36364V4.44886C6.08523 4.46307 6.42614 4.55824 6.73295 4.73438C7.03977 4.90767 7.28409 5.14773 7.46591 5.45455C7.64773 5.75852 7.73864 6.11648 7.73864 6.52841C7.73864 7.00568 7.61364 7.4304 7.36364 7.80256C7.11648 8.17472 6.7642 8.46733 6.30682 8.6804C5.84943 8.89347 5.30398 9 4.67045 9H0.5625ZM2.93182 7.10795H4.03977C4.4375 7.10795 4.7358 7.03409 4.93466 6.88636C5.13352 6.7358 5.23295 6.5142 5.23295 6.22159C5.23295 6.01705 5.18608 5.84375 5.09233 5.7017C4.99858 5.55966 4.86506 5.4517 4.69176 5.37784C4.52131 5.30398 4.31534 5.26705 4.07386 5.26705H2.93182V7.10795ZM2.93182 3.80114H3.90341C4.1108 3.80114 4.29403 3.76847 4.45312 3.70312C4.61222 3.63778 4.7358 3.54403 4.82386 3.42188C4.91477 3.29688 4.96023 3.14489 4.96023 2.96591C4.96023 2.69602 4.86364 2.49006 4.67045 2.34801C4.47727 2.20312 4.23295 2.13068 3.9375 2.13068H2.93182V3.80114Z" fill="#ED3F40"/>
<path d="M8.57812 9V0.272727H12.3622C13.027 0.272727 13.5852 0.362216 14.0369 0.541193C14.4915 0.72017 14.8338 0.973011 15.0639 1.29972C15.2969 1.62642 15.4134 2.01136 15.4134 2.45455C15.4134 2.77557 15.3423 3.06818 15.2003 3.33239C15.0611 3.59659 14.8651 3.81818 14.6122 3.99716C14.3594 4.1733 14.0639 4.29545 13.7259 4.36364V4.44886C14.1009 4.46307 14.4418 4.55824 14.7486 4.73438C15.0554 4.90767 15.2997 5.14773 15.4815 5.45455C15.6634 5.75852 15.7543 6.11648 15.7543 6.52841C15.7543 7.00568 15.6293 7.4304 15.3793 7.80256C15.1321 8.17472 14.7798 8.46733 14.3224 8.6804C13.8651 8.89347 13.3196 9 12.6861 9H8.57812ZM10.9474 7.10795H12.0554C12.4531 7.10795 12.7514 7.03409 12.9503 6.88636C13.1491 6.7358 13.2486 6.5142 13.2486 6.22159C13.2486 6.01705 13.2017 5.84375 13.108 5.7017C13.0142 5.55966 12.8807 5.4517 12.7074 5.37784C12.5369 5.30398 12.331 5.26705 12.0895 5.26705H10.9474V7.10795ZM10.9474 3.80114H11.919C12.1264 3.80114 12.3097 3.76847 12.4688 3.70312C12.6278 3.63778 12.7514 3.54403 12.8395 3.42188C12.9304 3.29688 12.9759 3.14489 12.9759 2.96591C12.9759 2.69602 12.8793 2.49006 12.6861 2.34801C12.4929 2.20312 12.2486 2.13068 11.9531 2.13068H10.9474V3.80114Z" fill="white"/>
</svg>
